<svg xmlns="http://www.w3.org/2000/svg" xmlns:xlink="http://www.w3.org/1999/xlink" width="500" zoomAndPan="magnify" viewBox="0 0 375 374.999991" height="500" preserveAspectRatio="xMidYMid meet" version="1.0"><defs><g/></defs><g fill="#000000" fill-opacity="1"><g transform="translate(147.21107, 67.600301)"><g><path d="M 13.839844 -15.078125 C 13.542969 -15.171875 13.433594 -14.875 13.324219 -14.5625 C 13.324219 -14.546875 13.308594 -14.546875 13.308594 -14.53125 C 9.71875 -1.785156 5.753906 4.5 3.417969 5.078125 C 2.976562 5.1875 2.617188 5.078125 2.304688 4.75 C 0.910156 3.246094 0.832031 -2.539062 3.824219 -12.117188 C 3.871094 -12.273438 3.792969 -12.445312 3.621094 -12.492188 C 3.464844 -12.539062 3.308594 -12.460938 3.246094 -12.304688 C 0.546875 -3.667969 0.015625 3.183594 1.867188 5.15625 C 2.320312 5.644531 2.914062 5.816406 3.558594 5.660156 C 4.984375 5.3125 6.628906 3.449219 8.371094 0.25 C 9.65625 -2.117188 10.925781 -5.15625 12.132812 -8.699219 C 11.003906 -3.746094 9.59375 2.695312 9.3125 6.175781 C 9.203125 7.742188 9.53125 8.792969 10.171875 8.933594 C 10.21875 8.949219 10.265625 8.949219 10.3125 8.949219 C 10.832031 8.949219 11.316406 8.339844 11.742188 7.148438 C 11.789062 6.992188 11.710938 6.820312 11.550781 6.757812 C 11.394531 6.707031 11.222656 6.789062 11.175781 6.945312 C 10.738281 8.167969 10.378906 8.371094 10.296875 8.355469 C 10.140625 8.308594 9.8125 7.648438 9.921875 6.222656 C 10.21875 2.351562 12.054688 -5.613281 13.136719 -10.359375 C 13.433594 -11.632812 13.683594 -12.726562 13.839844 -13.496094 C 13.933594 -13.902344 13.996094 -14.203125 14.027344 -14.40625 C 14.078125 -14.6875 14.125 -14.984375 13.839844 -15.078125 Z M 13.839844 -15.078125 "/></g></g></g><g fill="#000000" fill-opacity="1"><g transform="translate(160.940102, 67.600301)"><g><path d="M 6.300781 -3.496094 C 6.160156 -3.574219 5.972656 -3.527344 5.894531 -3.371094 C 5.519531 -2.726562 4.53125 -0.988281 3.964844 -1.050781 C 3.855469 -1.066406 3.542969 -1.222656 3.230469 -2.320312 C 3.007812 -3.089844 2.710938 -3.808594 2.132812 -3.839844 C 1.707031 -3.871094 1.238281 -3.542969 0.515625 -2.195312 C 0.707031 -2.867188 0.910156 -3.542969 1.066406 -4.089844 C 1.128906 -4.296875 1.175781 -4.46875 1.222656 -4.640625 C 1.269531 -4.796875 1.175781 -4.96875 1.019531 -5.015625 C 0.863281 -5.0625 0.691406 -4.96875 0.644531 -4.796875 C 0.59375 -4.640625 0.546875 -4.453125 0.484375 -4.261719 C 0.078125 -2.867188 -0.53125 -0.753906 -0.691406 0.53125 C -0.707031 0.675781 -0.613281 0.816406 -0.46875 0.847656 C -0.4375 0.863281 -0.421875 0.863281 -0.390625 0.863281 C -0.265625 0.863281 -0.15625 0.785156 -0.109375 0.675781 C 1.363281 -2.992188 1.960938 -3.246094 2.101562 -3.246094 C 2.132812 -3.246094 2.351562 -3.183594 2.648438 -2.148438 C 2.960938 -1.066406 3.371094 -0.515625 3.902344 -0.453125 C 4.703125 -0.359375 5.421875 -1.347656 6.410156 -3.074219 C 6.503906 -3.230469 6.441406 -3.402344 6.300781 -3.496094 Z M 6.300781 -3.496094 "/></g></g></g><g fill="#000000" fill-opacity="1"><g transform="translate(166.535152, 67.600301)"><g/></g></g><g fill="#000000" fill-opacity="1"><g transform="translate(171.34658, 67.600301)"><g><path d="M 16.773438 -15.125 C 14.421875 -15.09375 10.847656 -14.578125 7.773438 -13.839844 C 7.804688 -13.964844 7.835938 -14.109375 7.867188 -14.21875 C 7.898438 -14.390625 7.789062 -14.546875 7.632812 -14.578125 C 7.460938 -14.625 7.304688 -14.515625 7.273438 -14.359375 C 7.226562 -14.140625 7.179688 -13.917969 7.117188 -13.667969 C 4.53125 -13.011719 1.566406 -11.976562 1.175781 -10.660156 C 1.050781 -10.28125 1.097656 -9.71875 1.914062 -9.152344 C 1.976562 -9.105469 2.023438 -9.089844 2.085938 -9.089844 C 2.179688 -9.089844 2.273438 -9.136719 2.335938 -9.234375 C 2.429688 -9.359375 2.398438 -9.546875 2.257812 -9.640625 C 1.628906 -10.078125 1.707031 -10.378906 1.738281 -10.488281 C 2.007812 -11.347656 4.199219 -12.257812 6.960938 -13.011719 C 6.660156 -11.757812 6.269531 -10.25 5.863281 -8.699219 C 5.484375 -7.289062 5.109375 -5.816406 4.75 -4.375 C 2.710938 -3.824219 0.988281 -3.246094 0.578125 -2.851562 C 0.46875 -2.742188 0.453125 -2.554688 0.578125 -2.429688 C 0.628906 -2.367188 0.722656 -2.335938 0.800781 -2.335938 C 0.863281 -2.335938 0.941406 -2.367188 1.003906 -2.429688 C 1.222656 -2.632812 2.414062 -3.105469 4.578125 -3.699219 C 3.777344 -0.453125 3.121094 2.601562 3.089844 4.4375 C 3.074219 5.4375 3.324219 6.035156 3.839844 6.253906 C 3.980469 6.316406 4.121094 6.332031 4.28125 6.332031 C 5.582031 6.332031 7.632812 4.4375 9.96875 2.164062 C 10.140625 1.992188 10.3125 1.835938 10.457031 1.691406 L 10.722656 1.425781 C 10.785156 1.378906 10.847656 1.300781 10.925781 1.238281 C 10.941406 1.269531 10.957031 1.285156 10.972656 1.300781 C 11.113281 1.394531 11.300781 1.363281 11.394531 1.238281 C 12.007812 0.421875 12.242188 0.109375 11.976562 -0.125 C 11.742188 -0.34375 11.457031 -0.09375 11.160156 0.1875 C 10.925781 0.40625 10.628906 0.691406 10.296875 1.003906 L 10.046875 1.253906 C 9.890625 1.410156 9.71875 1.566406 9.546875 1.722656 C 7.980469 3.261719 5.0625 6.128906 4.074219 5.707031 C 3.746094 5.566406 3.683594 4.9375 3.699219 4.453125 C 3.730469 2.617188 4.421875 -0.578125 5.25 -3.886719 C 5.613281 -3.980469 5.988281 -4.089844 6.394531 -4.183594 C 9.105469 -4.875 11.632812 -5.359375 12.257812 -5.328125 C 12.429688 -5.3125 12.570312 -5.4375 12.570312 -5.613281 C 12.585938 -5.785156 12.460938 -5.925781 12.289062 -5.925781 C 11.535156 -5.972656 8.308594 -5.3125 5.40625 -4.5625 C 5.753906 -5.910156 6.113281 -7.273438 6.441406 -8.542969 C 6.882812 -10.234375 7.304688 -11.851562 7.617188 -13.167969 C 10.707031 -13.949219 14.34375 -14.484375 16.789062 -14.515625 C 16.945312 -14.515625 17.085938 -14.65625 17.085938 -14.828125 C 17.085938 -14.984375 16.945312 -15.109375 16.773438 -15.125 Z M 16.773438 -15.125 "/></g></g></g><g fill="#000000" fill-opacity="1"><g transform="translate(184.636783, 67.600301)"><g><path d="M 6.976562 -3.589844 C 6.851562 -3.699219 6.660156 -3.683594 6.550781 -3.558594 C 5.3125 -2.132812 3.371094 0.140625 3.058594 0.546875 C 2.960938 0.660156 2.867188 0.785156 2.773438 0.910156 C 2.648438 0.59375 2.492188 0.296875 2.289062 -0.015625 C 1.535156 -1.175781 0.863281 -2.273438 0.894531 -3.039062 C 0.925781 -3.652344 1.238281 -4.183594 1.753906 -4.5 C 2.179688 -4.75 2.648438 -4.796875 3.007812 -4.625 C 3.152344 -4.5625 3.339844 -4.625 3.402344 -4.78125 C 3.480469 -4.921875 3.417969 -5.109375 3.261719 -5.171875 C 2.726562 -5.421875 2.039062 -5.359375 1.441406 -5.015625 C 0.753906 -4.59375 0.34375 -3.886719 0.296875 -3.074219 C 0.25 -2.117188 0.941406 -0.972656 1.785156 0.3125 C 2.054688 0.722656 2.226562 1.113281 2.335938 1.488281 C 1.113281 3.152344 -0.203125 5.28125 0.46875 5.941406 C 0.578125 6.050781 0.722656 6.097656 0.863281 6.097656 C 1.113281 6.097656 1.394531 5.972656 1.691406 5.738281 C 2.539062 5.03125 3.417969 3.433594 2.992188 1.613281 C 3.167969 1.394531 3.339844 1.160156 3.527344 0.925781 C 3.839844 0.53125 5.785156 -1.738281 7.007812 -3.167969 C 7.117188 -3.292969 7.101562 -3.480469 6.976562 -3.589844 Z M 1.882812 4.609375 C 1.457031 5.234375 1.035156 5.484375 0.894531 5.503906 C 0.832031 5.28125 1.035156 4.375 2.492188 2.304688 C 2.554688 3.433594 2.085938 4.296875 1.882812 4.609375 Z M 1.882812 4.609375 "/></g></g></g><g fill="#000000" fill-opacity="1"><g transform="translate(190.952765, 67.600301)"><g><path d="M 3.355469 -5.816406 C 2.945312 -5.941406 1.882812 -5.863281 0.769531 -2.617188 C 1.394531 -6.160156 1.503906 -6.789062 1.488281 -6.898438 C 1.488281 -7.054688 1.347656 -7.195312 1.175781 -7.179688 C 1.019531 -7.164062 0.894531 -7.039062 0.894531 -6.882812 C 0.878906 -6.660156 0.484375 -4.546875 0.0625 -2.101562 C -0.03125 -1.566406 -0.140625 -1.019531 -0.234375 -0.453125 C -0.453125 -0.375 -0.675781 -0.296875 -0.894531 -0.234375 C -1.050781 -0.1875 -1.144531 -0.03125 -1.097656 0.140625 C -1.050781 0.296875 -0.894531 0.390625 -0.738281 0.34375 C -0.613281 0.3125 -0.484375 0.265625 -0.359375 0.234375 C -1.035156 4.058594 -1.800781 8.433594 -2.164062 10.832031 C -2.179688 10.988281 -2.070312 11.144531 -1.914062 11.160156 C -1.898438 11.160156 -1.882812 11.175781 -1.867188 11.175781 C -1.722656 11.175781 -1.582031 11.066406 -1.566406 10.925781 C -1.175781 8.605469 -0.09375 3.105469 0.722656 -0.234375 C 1.207031 -0.484375 1.660156 -0.769531 2.085938 -1.097656 C 2.757812 -1.644531 3.621094 -2.523438 3.917969 -3.667969 C 4.214844 -4.71875 3.964844 -5.628906 3.355469 -5.816406 Z M 3.339844 -3.824219 C 3.039062 -2.710938 2.054688 -1.722656 0.925781 -1.035156 C 1.066406 -1.566406 1.191406 -2.023438 1.300781 -2.351562 C 2.117188 -4.75 2.867188 -5.234375 3.136719 -5.234375 C 3.152344 -5.234375 3.167969 -5.234375 3.183594 -5.234375 C 3.386719 -5.171875 3.558594 -4.625 3.339844 -3.824219 Z M 3.339844 -3.824219 "/></g></g></g><g fill="#000000" fill-opacity="1"><g transform="translate(195.685833, 67.600301)"><g><path d="M 6.550781 -3.480469 C 6.410156 -3.542969 6.222656 -3.480469 6.160156 -3.339844 C 4.96875 -0.910156 4.074219 -0.140625 3.652344 -0.21875 C 3.480469 -0.25 2.914062 -0.578125 2.773438 -3.324219 C 2.773438 -3.449219 2.679688 -3.558594 2.570312 -3.589844 C 2.445312 -3.621094 2.304688 -3.589844 2.242188 -3.480469 C 2.148438 -3.371094 2.054688 -3.246094 1.960938 -3.105469 C 1.566406 -2.570312 1.050781 -1.851562 0.421875 -1.175781 C 0.328125 -1.066406 0.25 -1.003906 0.203125 -0.972656 C 0.09375 -1.519531 0.675781 -3.621094 1.597656 -4.28125 C 1.867188 -4.46875 2.226562 -4.609375 2.710938 -4.042969 C 2.820312 -3.917969 3.007812 -3.902344 3.136719 -4.011719 C 3.261719 -4.105469 3.277344 -4.3125 3.183594 -4.4375 C 2.585938 -5.125 2.023438 -5.109375 1.644531 -4.984375 C 0.4375 -4.5625 -0.375 -2.242188 -0.40625 -1.175781 C -0.421875 -0.738281 -0.296875 -0.453125 -0.046875 -0.359375 C 0.34375 -0.203125 0.738281 -0.628906 0.863281 -0.769531 C 1.394531 -1.347656 1.882812 -1.976562 2.226562 -2.460938 C 2.398438 -0.675781 2.820312 0.21875 3.527344 0.375 C 3.589844 0.375 3.652344 0.390625 3.714844 0.390625 C 4.78125 0.390625 5.925781 -1.472656 6.691406 -3.074219 C 6.773438 -3.230469 6.707031 -3.402344 6.550781 -3.480469 Z M 6.550781 -3.480469 "/></g></g></g><g fill="#000000" fill-opacity="1"><g transform="translate(201.515969, 67.600301)"><g><path d="M 5.171875 -3.558594 C 5.03125 -3.636719 4.84375 -3.605469 4.765625 -3.464844 C 3.699219 -1.851562 1.929688 0.847656 0.769531 0.59375 C 0.578125 0.546875 0.421875 0.421875 0.3125 0.21875 C 0 -0.34375 0.046875 -1.472656 0.40625 -2.460938 C 0.800781 -3.511719 1.269531 -3.777344 1.363281 -3.761719 C 1.378906 -3.746094 1.472656 -3.542969 1.347656 -3.058594 C 1.300781 -2.882812 1.394531 -2.726562 1.550781 -2.679688 C 1.722656 -2.648438 1.882812 -2.742188 1.929688 -2.898438 C 2.226562 -4.027344 1.707031 -4.28125 1.550781 -4.34375 C 0.972656 -4.515625 0.265625 -3.824219 -0.15625 -2.664062 C -0.515625 -1.691406 -0.675781 -0.3125 -0.203125 0.515625 C -0.015625 0.878906 0.28125 1.097656 0.644531 1.175781 C 0.738281 1.207031 0.832031 1.207031 0.925781 1.207031 C 2.289062 1.207031 3.761719 -0.847656 5.265625 -3.136719 C 5.359375 -3.277344 5.3125 -3.464844 5.171875 -3.558594 Z M 5.171875 -3.558594 "/></g></g></g><g fill="#000000" fill-opacity="1"><g transform="translate(206.155002, 67.600301)"><g><path d="M 4.578125 -3.558594 C 4.4375 -3.652344 4.261719 -3.605469 4.167969 -3.464844 C 3.121094 -1.769531 1.363281 -0.171875 0.832031 -0.390625 C 0.769531 -0.421875 0.265625 -0.722656 0.957031 -3.371094 C 0.988281 -3.542969 0.894531 -3.699219 0.738281 -3.746094 C 0.5625 -3.777344 0.40625 -3.683594 0.359375 -3.527344 C -0.203125 -1.316406 -0.125 -0.140625 0.578125 0.15625 C 0.691406 0.203125 0.800781 0.21875 0.910156 0.21875 C 2.085938 0.21875 3.886719 -1.882812 4.6875 -3.152344 C 4.765625 -3.292969 4.71875 -3.480469 4.578125 -3.558594 Z M 0.878906 -4.828125 C 1.675781 -4.78125 1.660156 -5.785156 1.019531 -5.566406 C 0.691406 -5.46875 0.265625 -4.859375 0.878906 -4.828125 Z M 0.878906 -4.828125 "/></g></g></g><g fill="#000000" fill-opacity="1"><g transform="translate(210.120122, 67.600301)"><g><path d="M 5.675781 -3.402344 C 5.535156 -3.511719 5.34375 -3.480469 5.25 -3.355469 C 4.59375 -2.507812 3.511719 -1.800781 2.679688 -1.960938 C 2.695312 -2.070312 2.710938 -2.179688 2.710938 -2.289062 C 2.820312 -4.058594 2.273438 -4.421875 1.945312 -4.484375 C 1.566406 -4.5625 1.175781 -4.28125 0.988281 -3.808594 C 0.910156 -3.839844 0.816406 -3.839844 0.738281 -3.777344 C 0.109375 -3.386719 -0.40625 -2.382812 -0.125 -1.300781 C 0.0625 -0.660156 0.5 -0.25 1.082031 -0.25 C 1.628906 -0.25 2.210938 -0.660156 2.507812 -1.378906 C 3.605469 -1.144531 4.921875 -1.960938 5.722656 -2.976562 C 5.832031 -3.121094 5.800781 -3.308594 5.675781 -3.402344 Z M 1.097656 -0.847656 C 1.082031 -0.847656 1.082031 -0.847656 1.082031 -0.847656 C 0.691406 -0.863281 0.515625 -1.238281 0.46875 -1.457031 C 0.3125 -1.992188 0.4375 -2.726562 0.878906 -3.136719 C 0.910156 -2.601562 1.207031 -2.023438 1.960938 -1.613281 C 1.738281 -1.113281 1.363281 -0.847656 1.097656 -0.847656 Z M 2.117188 -2.320312 C 2.101562 -2.289062 2.101562 -2.257812 2.101562 -2.226562 C 1.503906 -2.617188 1.410156 -3.121094 1.519531 -3.511719 C 1.597656 -3.761719 1.753906 -3.886719 1.835938 -3.886719 C 1.914062 -3.871094 2.179688 -3.574219 2.117188 -2.320312 Z M 2.117188 -2.320312 "/></g></g></g><g fill="#000000" fill-opacity="1"><g transform="translate(161.518652, 85.948193)"><g><path d="M 1.8125 -2.828125 L 2.171875 -2.828125 C 2.523438 -2.828125 2.785156 -2.894531 2.953125 -3.03125 C 3.128906 -3.164062 3.21875 -3.367188 3.21875 -3.640625 C 3.21875 -3.898438 3.144531 -4.09375 3 -4.21875 C 2.851562 -4.351562 2.628906 -4.421875 2.328125 -4.421875 L 1.8125 -4.421875 Z M 4.359375 -3.671875 C 4.359375 -3.097656 4.175781 -2.660156 3.8125 -2.359375 C 3.457031 -2.054688 2.953125 -1.90625 2.296875 -1.90625 L 1.8125 -1.90625 L 1.8125 0 L 0.671875 0 L 0.671875 -5.34375 L 2.375 -5.34375 C 3.019531 -5.34375 3.507812 -5.203125 3.84375 -4.921875 C 4.1875 -4.640625 4.359375 -4.222656 4.359375 -3.671875 Z M 4.359375 -3.671875 "/></g></g></g><g fill="#000000" fill-opacity="1"><g transform="translate(167.981588, 85.948193)"><g><path d="M 3.9375 0 L 3.5625 -1.265625 L 1.609375 -1.265625 L 1.21875 0 L 0 0 L 1.890625 -5.359375 L 3.265625 -5.359375 L 5.15625 0 Z M 3.28125 -2.21875 C 2.925781 -3.375 2.722656 -4.023438 2.671875 -4.171875 C 2.628906 -4.328125 2.597656 -4.445312 2.578125 -4.53125 C 2.503906 -4.21875 2.273438 -3.445312 1.890625 -2.21875 Z M 3.28125 -2.21875 "/></g></g></g><g fill="#000000" fill-opacity="1"><g transform="translate(174.908412, 85.948193)"><g><path d="M 1.8125 -2.96875 L 2.171875 -2.96875 C 2.523438 -2.96875 2.785156 -3.023438 2.953125 -3.140625 C 3.128906 -3.265625 3.21875 -3.457031 3.21875 -3.71875 C 3.21875 -3.96875 3.128906 -4.144531 2.953125 -4.25 C 2.785156 -4.363281 2.519531 -4.421875 2.15625 -4.421875 L 1.8125 -4.421875 Z M 1.8125 -2.046875 L 1.8125 0 L 0.671875 0 L 0.671875 -5.34375 L 2.234375 -5.34375 C 2.953125 -5.34375 3.484375 -5.207031 3.828125 -4.9375 C 4.179688 -4.675781 4.359375 -4.28125 4.359375 -3.75 C 4.359375 -3.425781 4.269531 -3.140625 4.09375 -2.890625 C 3.925781 -2.648438 3.6875 -2.460938 3.375 -2.328125 C 4.175781 -1.128906 4.695312 -0.351562 4.9375 0 L 3.6875 0 L 2.40625 -2.046875 Z M 1.8125 -2.046875 "/></g></g></g><g fill="#000000" fill-opacity="1"><g transform="translate(181.612423, 85.948193)"><g><path d="M 3.9375 0 L 3.5625 -1.265625 L 1.609375 -1.265625 L 1.21875 0 L 0 0 L 1.890625 -5.359375 L 3.265625 -5.359375 L 5.15625 0 Z M 3.28125 -2.21875 C 2.925781 -3.375 2.722656 -4.023438 2.671875 -4.171875 C 2.628906 -4.328125 2.597656 -4.445312 2.578125 -4.53125 C 2.503906 -4.21875 2.273438 -3.445312 1.890625 -2.21875 Z M 3.28125 -2.21875 "/></g></g></g><g fill="#000000" fill-opacity="1"><g transform="translate(188.539246, 85.948193)"><g/></g></g><g fill="#000000" fill-opacity="1"><g transform="translate(192.248094, 85.948193)"><g><path d="M 2.734375 0 L 1.59375 0 L 1.59375 -4.40625 L 0.15625 -4.40625 L 0.15625 -5.34375 L 4.1875 -5.34375 L 4.1875 -4.40625 L 2.734375 -4.40625 Z M 2.734375 0 "/></g></g></g><g fill="#000000" fill-opacity="1"><g transform="translate(198.345766, 85.948193)"><g><path d="M 0.671875 0 L 0.671875 -5.34375 L 1.8125 -5.34375 L 1.8125 0 Z M 0.671875 0 "/></g></g></g></svg>